<svg width="24" height="24" viewBox="0 0 24 24" fill="none" xmlns="http://www.w3.org/2000/svg">
<path d="M10.4597 21.5812L8.17219 20.9175C7.93219 20.85 7.79719 20.5987 7.86469 20.3587L12.9834 2.72622C13.0509 2.48622 13.3022 2.35122 13.5422 2.41872L15.8297 3.08247C16.0697 3.14997 16.2047 3.40122 16.1372 3.64122L11.0184 21.2737C10.9472 21.5137 10.6997 21.6525 10.4597 21.5812ZM6.18469 17.3737L7.81594 15.6337C7.98844 15.45 7.97719 15.1575 7.78594 14.9887L4.38844 12L7.78594 9.01122C7.97719 8.84247 7.99219 8.54997 7.81594 8.36622L6.18469 6.62622C6.01594 6.44622 5.73094 6.43497 5.54719 6.60747L0.143438 11.67C-0.0478125 11.8462 -0.0478125 12.15 0.143438 12.3262L5.54719 17.3925C5.73094 17.565 6.01594 17.5575 6.18469 17.3737ZM18.4547 17.3962L23.8584 12.33C24.0497 12.1537 24.0497 11.85 23.8584 11.6737L18.4547 6.60372C18.2747 6.43497 17.9897 6.44247 17.8172 6.62247L16.1859 8.36247C16.0134 8.54622 16.0247 8.83872 16.2159 9.00747L19.6134 12L16.2159 14.9887C16.0247 15.1575 16.0097 15.45 16.1859 15.6337L17.8172 17.3737C17.9859 17.5575 18.2709 17.565 18.4547 17.3962Z" fill="#8E9090"/>
</svg>
