<svg width="48" height="48" viewBox="0 0 48 48" fill="none" xmlns="http://www.w3.org/2000/svg">
<g opacity="0.7">
<path d="M7.3125 8.98054C7.3125 4.02072 11.3332 0 16.2931 0H31.7026C36.6624 0 40.6832 4.02072 40.6832 8.98054C40.6832 12.1211 39.0711 14.8853 36.6292 16.4903C39.0711 18.0955 40.6832 20.8596 40.6832 24.0002C40.6832 28.96 36.6624 32.9808 31.7026 32.9808H31.5076C29.1824 32.9808 27.0636 32.0971 25.4687 30.6472V38.9219C25.4687 43.9478 21.3428 48 16.3415 48C11.394 48 7.3125 43.9915 7.3125 39.0194C7.3125 35.879 8.92448 33.115 11.3662 31.5098C8.92448 29.9047 7.3125 27.1406 7.3125 24.0002C7.3125 20.8596 8.92463 18.0955 11.3665 16.4903C8.92463 14.8853 7.3125 12.1211 7.3125 8.98054ZM22.527 17.9613H16.2931C12.9579 17.9613 10.2542 20.665 10.2542 24.0002C10.2542 27.3225 12.937 30.0182 16.2545 30.039C16.2673 30.0389 16.2802 30.0389 16.2931 30.0389H22.527V17.9613ZM25.4687 24.0002C25.4687 27.3353 28.1723 30.0391 31.5076 30.0391H31.7026C35.0378 30.0391 37.7415 27.3353 37.7415 24.0002C37.7415 20.665 35.0378 17.9613 31.7026 17.9613H31.5076C28.1723 17.9613 25.4687 20.665 25.4687 24.0002ZM16.2931 32.9808C16.2802 32.9808 16.2673 32.9807 16.2545 32.9807C12.937 33.0014 10.2542 35.6971 10.2542 39.0194C10.2542 42.3424 12.994 45.0583 16.3415 45.0583C19.7429 45.0583 22.527 42.2987 22.527 38.9219V32.9808H16.2931ZM16.2931 2.94167C12.9579 2.94167 10.2542 5.64537 10.2542 8.98054C10.2542 12.3158 12.9579 15.0194 16.2931 15.0194H22.527V2.94167H16.2931ZM25.4687 15.0194H31.7026C35.0378 15.0194 37.7415 12.3158 37.7415 8.98054C37.7415 5.64537 35.0378 2.94167 31.7026 2.94167H25.4687V15.0194Z" fill="#F24E1E"/>
</g>
</svg>
