<svg width="48" height="47" viewBox="0 0 48 47" fill="none" xmlns="http://www.w3.org/2000/svg">
<path d="M19.7 16.24C18.96 15.94 18.16 15.82 17.34 15.84C16.82 15.84 16.36 15.84 15.98 15.86C15.58 15.84 15.3 15.86 15.16 15.88V22.6C15.44 22.62 15.7 22.64 15.94 22.64H17C17.78 22.64 18.56 22.52 19.3 22.28C19.94 22.1 20.5 21.72 20.94 21.22C21.36 20.72 21.56 20.04 21.56 19.16C21.58 18.54 21.42 17.92 21.1 17.38C20.76 16.86 20.28 16.46 19.7 16.24ZM39.5 0H8.5C3.8 0 0 3.8 0 8.5V38.298C0 42.998 3.8 46.798 8.5 46.798H39.5C44.2 46.798 48 42.998 48 38.298V8.5C48 3.8 44.2 0 39.5 0ZM24.718 23.3C23.92 24.42 22.8 25.26 21.5 25.74C20.14 26.24 18.64 26.42 17 26.42C16.52 26.42 16.2 26.42 16 26.4C15.8 26.38 15.52 26.38 15.14 26.38V32.798C15.16 32.938 15.06 33.06 14.92 33.08H11.04C10.88 33.08 10.8 32.998 10.8 32.818V12.24C10.8 12.1 10.86 12.02 11 12.02C11.34 12.02 11.66 12.02 12.12 12C12.6 11.98 13.1 11.98 13.64 11.96C14.18 11.94 14.76 11.94 15.38 11.92C16 11.9 16.6 11.9 17.2 11.9C18.84 11.9 20.2 12.1 21.32 12.52C22.32 12.86 23.24 13.42 24 14.16C24.64 14.8 25.14 15.58 25.46 16.44C25.758 17.28 25.918 18.14 25.918 19.04C25.92 20.76 25.52 22.18 24.718 23.3ZM38.9 31.08C38.34 31.88 37.558 32.498 36.66 32.862C35.68 33.28 34.48 33.498 33.038 33.498C32.12 33.498 31.218 33.42 30.32 33.24C29.62 33.118 28.92 32.9 28.28 32.6C28.14 32.522 28.038 32.382 28.058 32.222V28.742C28.058 28.684 28.08 28.602 28.14 28.562C28.198 28.522 28.26 28.542 28.32 28.582C29.1 29.042 29.92 29.364 30.8 29.562C31.558 29.762 32.358 29.862 33.16 29.862C33.92 29.862 34.46 29.76 34.82 29.58C35.14 29.44 35.36 29.1 35.36 28.74C35.36 28.458 35.2 28.2 34.88 27.94C34.56 27.682 33.902 27.382 32.922 26.998C31.902 26.638 30.964 26.158 30.082 25.56C29.462 25.118 28.944 24.54 28.56 23.86C28.242 23.22 28.082 22.52 28.102 21.818C28.102 20.958 28.342 20.138 28.784 19.398C29.284 18.598 30.022 17.958 30.882 17.558C31.82 17.08 33 16.86 34.42 16.86C35.24 16.86 36.08 16.92 36.9 17.04C37.5 17.12 38.08 17.28 38.62 17.5C38.698 17.52 38.78 17.6 38.82 17.68C38.84 17.76 38.86 17.84 38.86 17.92V21.18C38.86 21.26 38.82 21.34 38.76 21.38C38.58 21.42 38.48 21.42 38.4 21.38C37.8 21.06 37.16 20.84 36.48 20.7C35.74 20.54 35 20.44 34.24 20.44C33.84 20.42 33.42 20.48 33.038 20.58C32.78 20.64 32.558 20.78 32.418 20.98C32.318 21.14 32.258 21.34 32.258 21.52C32.258 21.7 32.338 21.88 32.46 22.04C32.64 22.26 32.878 22.44 33.14 22.58C33.598 22.82 34.08 23.04 34.558 23.24C35.64 23.6 36.68 24.1 37.64 24.7C38.3 25.118 38.84 25.68 39.218 26.36C39.538 26.996 39.698 27.7 39.678 28.418C39.7 29.36 39.42 30.298 38.9 31.08Z" fill="#31A8FF"/>
</svg>
